<?xml version="1.0" encoding="UTF-8"?><!DOCTYPE svg PUBLIC "-//W3C//DTD SVG 1.1//EN" "http://www.w3.org/Graphics/SVG/1.1/DTD/svg11.dtd"><svg xmlns="http://www.w3.org/2000/svg" xmlns:xlink="http://www.w3.org/1999/xlink"><defs>
        <path d="M6.5.625a3.75 3.75 0 013.75 3.75V6.25h.625c1.036 0 1.875.84 1.875 1.875V12.5c0 1.036-.84 1.875-1.875 1.875h-8.75A1.875 1.875 0 01.25 12.5V8.125c0-1.036.84-1.875 1.875-1.875h.625V4.375A3.75 3.75 0 016.3.63zm0 1.25a2.5 2.5 0 00-2.5 2.5V6.25h5V4.375A2.5 2.5 0 006.664 1.88z" id="a"/>
        <path id="b" d="M5.696 11.67l-1.613-1.59L4 10.16l1.696 1.672L9 8.582 8.917 8.5z"/>
    </defs><symbol id="ico-color-example" viewBox="0 0 51.9 51.9">
    <circle cx="26" cy="26" r="26" fill="#fc2c38"/>
    <path d="M40 21.9h-.8l-3.1-8.7H16l-3.1 8.7H8.8v2.8h3.1v14h5.4v-4.4h17.3v4.4H40V24.6h3.1v-2.8H40zm-22.1-6.5h16.5l2.4 6.5H15.5l2.4-6.5zm3.9 13.7h-6.5v-2.8h6.5v2.8zm15.3 0h-6.5v-2.8h6.5v2.8z" fill-rule="evenodd" clip-rule="evenodd" fill="#fff"/>
</symbol><symbol id="ico-color-lock-secure" viewBox="0 0 13 15">
    
    <g fill="none" fill-rule="evenodd">
        <use fill="#2ECC6F" xlink:href="#a"/>
        <use stroke="#FFF" stroke-width=".3" fill="#FFF" xlink:href="#b"/>
    </g>
</symbol><symbol id="ico-color-MasterCard" viewBox="0 0 42 27">
    <g fill="none" fill-rule="evenodd">
        <path d="M25.501 13.35c0 7.025-5.694 12.719-12.718 12.719-7.025 0-12.719-5.694-12.719-12.718S5.758.632 12.783.632C19.807.632 25.5 6.327 25.5 13.351" fill="#BBB"/>
        <path d="M29.206.632a12.674 12.674 0 00-8.538 3.292c-.46.417-.888.867-1.284 1.347h2.57c.35.427.674.876.97 1.347h-4.51c-.27.432-.515.881-.732 1.347h5.974c.204.436.384.885.539 1.346h-7.052c-.147.439-.27.888-.37 1.347h7.79a12.811 12.811 0 01-.368 6.733h-7.052c.155.461.334.91.538 1.347h5.975a12.74 12.74 0 01-.734 1.347h-4.508c.294.47.618.92.97 1.346h2.57c-.396.48-.825.93-1.286 1.347a12.671 12.671 0 008.538 3.291c7.024 0 12.719-5.694 12.719-12.718S36.23.632 29.206.632" fill="#CCC"/>
        <path d="M14.753 11.52c.283 0 .768.04 1.088.09l-.176 1.064a7.025 7.025 0 00-.888-.07c-.4 0-.605.128-.605.377 0 .214.06.266.578.499.619.278.87.648.87 1.279 0 1.049-.601 1.534-1.906 1.534-.754-.021-1.005-.076-1.285-.136l.17-1.06c.395.125.738.181 1.107.181.489 0 .71-.129.71-.415 0-.209-.078-.277-.578-.507-.653-.301-.942-.7-.942-1.282-.004-.848.475-1.554 1.857-1.554zm-3.75 0c1.06 0 1.622.466 1.621 1.346.002.236-.037.528-.1.91-.107.664-.337 2.091-.369 2.437h-1.023l.023-.475c-.312.376-.729.555-1.295.555-.67 0-1.129-.512-1.129-1.254 0-1.118.799-1.77 2.17-1.77.14 0 .32.013.503.036.038-.152.049-.216.049-.299 0-.303-.216-.416-.793-.416a4.189 4.189 0 00-1.308.205l.171-1.032c.616-.176 1.022-.243 1.48-.243zm28.1-.951l-.94 5.644h-1.17l.058-.427c-.339.354-.686.507-1.139.507-.898 0-1.492-.757-1.492-1.905 0-1.527.921-2.814 2.01-2.814.48 0 .843.191 1.18.626l.275-1.631h1.218zm-18.893.951c1.014 0 1.66.647 1.66 1.662 0 .337-.045.665-.15 1.129h-2.447c-.083.666.353.944 1.067.944.44 0 .836-.09 1.278-.29l-.204 1.142c-.423.127-.83.186-1.261.186-1.376 0-2.092-.703-2.092-2.048 0-1.57.912-2.725 2.149-2.725zm-2.493-.592l-.144.695h.63l-.168 1.103h-.632c-.143.874-.346 1.96-.349 2.105 0 .237.13.34.424.34.14 0 .25-.014.333-.043l-.164 1.016a2.88 2.88 0 01-.888.15c-.631 0-.976-.356-.976-1.009-.009-.204.09-.737.17-1.224.07-.43.535-3.133.535-3.133h1.229zm12.752.592c1.06 0 1.623.466 1.622 1.346.002.236-.038.528-.1.91-.107.664-.337 2.091-.369 2.437h-1.024l.024-.475c-.313.376-.73.555-1.295.555-.67 0-1.129-.512-1.129-1.254 0-1.118.798-1.77 2.17-1.77.14 0 .319.013.502.036a1.11 1.11 0 00.049-.299c0-.303-.215-.416-.792-.416a4.191 4.191 0 00-1.308.205l.171-1.032c.616-.176 1.022-.243 1.479-.243zm-3.098-1.092c.54 0 1.177.223 1.358.293l-.202 1.225c-.441-.217-.761-.305-1.104-.305-.922 0-1.57.872-1.57 2.115 0 .857.435 1.375 1.154 1.375.304 0 .64-.092 1.05-.29l-.218 1.287c-.455.12-.75.165-1.092.165-1.33 0-2.159-.935-2.159-2.437 0-2.018 1.146-3.428 2.783-3.428zm-3.747 1.891c.378-.543.668-.83 1.185-.724-.153.254-.359.757-.47 1.332-.692-.069-.798.48-1.24 3.286h-1.237l.056-.308c.215-1.422.49-2.861.645-4.282h1.135c.01.233-.044.461-.074.696zM6.002 10.57l.05 3.494L7.25 10.57h1.92l-.956 5.644H6.978l.708-4.339-1.58 4.34h-.843l-.104-4.315-.744 4.314H3.26l.966-5.644h1.777zm27.794 1.75c.379-.543.668-.83 1.185-.724-.153.254-.358.757-.469 1.332-.693-.069-.8.48-1.242 3.286h-1.236l.057-.308c.215-1.422.49-2.861.644-4.282h1.135c.01.233-.044.461-.074.696zm-22.815 1.83c-.7 0-1.055.235-1.055.7 0 .285.173.467.443.467.503 0 .866-.468.888-1.147a2.1 2.1 0 00-.276-.02zm19.467 0c-.7 0-1.055.235-1.055.7 0 .285.173.467.443.467.503 0 .866-.468.887-1.147a2.085 2.085 0 00-.275-.02zm6.216-1.443c-.56 0-.958.64-.958 1.542 0 .601.213.905.633.905.576 0 .98-.638.98-1.547 0-.584-.23-.9-.655-.9zm-16.513-.14c-.39 0-.67.292-.785.819h1.357c.007-.096.13-.82-.572-.82z" fill="#232323"/>
    </g>
</symbol></svg>