<?xml version="1.0" encoding="UTF-8"?><!DOCTYPE svg PUBLIC "-//W3C//DTD SVG 1.1//EN" "http://www.w3.org/Graphics/SVG/1.1/DTD/svg11.dtd"><svg xmlns="http://www.w3.org/2000/svg" xmlns:xlink="http://www.w3.org/1999/xlink"><defs>
        <path id="a" d="M.089.089h23.644v23.644H.09z"/>
    
        <path id="a" d="M.055.031h58.818v56.6H.055z"/>
    
        <path id="a" d="M.04.105h10.202v10.206H.04z"/>
    </defs><symbol id="ico-mono-AmericanExpress" viewBox="0 0 42 16">
    <g fill-rule="evenodd">
        <path d="M41.644 10.6h-2.12c-.211 0-.352.007-.47.087-.123.079-.17.195-.17.35 0 .182.104.307.254.36.123.043.255.056.449.056l.63.016c.636.016 1.06.125 1.32.391.047.037.075.079.107.12V10.6zm0 3.199c-.282.411-.833.62-1.578.62H37.82v-1.04h2.237c.222 0 .377-.03.47-.12a.426.426 0 00.138-.317.398.398 0 00-.142-.32c-.084-.075-.207-.109-.41-.109-1.092-.037-2.454.034-2.454-1.501 0-.704.448-1.445 1.668-1.445h2.317V8.6h-2.152c-.65 0-1.122.155-1.456.397V8.6h-3.184c-.509 0-1.107.126-1.39.397V8.6h-5.685v.397c-.453-.326-1.216-.397-1.568-.397h-3.75v.397c-.359-.346-1.155-.397-1.64-.397h-4.197l-.96 1.037-.9-1.037h-6.27v6.771h6.152l.99-1.052.932 1.052 3.792.004v-1.593h.372c.504.008 1.097-.013 1.62-.238v1.827h3.128v-1.765h.151c.193 0 .212.008.212.2v1.565h9.501c.603 0 1.234-.154 1.583-.433v.433h3.014c.627 0 1.24-.088 1.705-.312v-1.261zm-4.64-1.939c.227.234.349.529.349 1.028 0 1.044-.654 1.531-1.827 1.531H33.26v-1.04h2.256c.221 0 .377-.03.476-.12a.43.43 0 00.137-.317.416.416 0 00-.142-.32c-.089-.075-.212-.109-.414-.109-1.088-.037-2.45.034-2.45-1.501 0-.704.443-1.445 1.663-1.445h2.332V10.6h-2.134c-.212 0-.35.008-.466.087-.127.079-.175.195-.175.35 0 .182.108.307.255.36.122.043.254.056.452.056l.627.017c.63.015 1.064.124 1.328.39zm-10.495-.3c-.155.092-.348.1-.574.1h-1.413v-1.09h1.432c.207 0 .415.005.555.088.151.079.241.229.241.437 0 .207-.09.374-.24.465zm.703.604c.259.095.47.266.57.408.164.236.188.458.192.885v.962h-1.167v-.607c0-.292.028-.724-.188-.95-.17-.173-.43-.215-.854-.215h-1.243v1.772h-1.168V9.567h2.685c.589 0 1.018.026 1.4.229.366.22.597.524.597 1.077a1.36 1.36 0 01-.824 1.291zm1.47-2.597h3.881v1.003H29.84v.882h2.657v.99H29.84v.966l2.723.004v1.007h-3.882V9.567zm-7.848 2.24H19.33V10.57h1.516c.42 0 .712.171.712.595 0 .42-.278.641-.725.641zm-2.662 2.171l-1.786-1.977 1.786-1.914v3.891zm-4.611-.57H10.7v-.965h2.553v-.99h-2.553v-.883h2.916l1.272 1.414-1.328 1.424zm9.246-2.243c0 1.348-1.008 1.627-2.025 1.627h-1.451v1.627H17.07l-1.432-1.606-1.489 1.606H9.542V9.567h4.678l1.431 1.59 1.48-1.59h3.716c.923 0 1.96.254 1.96 1.598z"/>
        <path d="M3.993 3.975L3.197 2.04l-.792 1.935h1.588zm17.538-.77c-.16.096-.35.1-.576.1h-1.413V2.226h1.433c.202 0 .414.009.551.087.151.07.244.221.244.43 0 .211-.088.382-.24.46zm10.08.77l-.805-1.935-.8 1.935h1.605zM12.82 6.068h-1.192l-.005-3.8-1.686 3.8H8.916l-1.69-3.803v3.803H4.86l-.447-1.082H1.99L1.54 6.068H.276L2.36 1.217h1.728L6.065 5.81V1.217h1.899l1.522 3.29 1.398-3.29h1.937v4.85zm4.752 0h-3.885V1.217h3.885v1.01h-2.722V3.1h2.657v.995H14.85v.969h2.722v1.003zm5.479-3.545c0 .774-.518 1.173-.82 1.293.255.097.472.267.575.409.165.241.193.457.193.89v.953h-1.173l-.005-.612c0-.292.028-.712-.183-.945-.17-.17-.43-.208-.848-.208h-1.249v1.765H18.38V1.217h2.676c.594 0 1.032.015 1.408.232.368.217.589.533.589 1.074zm1.861 3.545h-1.187V1.217h1.187v4.85zm13.768 0h-1.648l-2.205-3.641v3.64H32.46l-.453-1.081h-2.416l-.44 1.082h-1.36c-.566 0-1.281-.125-1.687-.537-.409-.412-.621-.97-.621-1.852 0-.72.127-1.377.627-1.897.376-.387.965-.565 1.766-.565h1.126v1.039H27.9c-.425 0-.664.063-.895.287-.198.205-.335.59-.335 1.1 0 .52.104.894.32 1.139.18.192.505.25.81.25h.523l1.64-3.815h1.742l1.97 4.588V1.217h1.77l2.045 3.378V1.217h1.191v4.85zM.263 7.02H2.25l.448-1.078h1.003l.447 1.078h3.91v-.824l.35.827h2.03l.348-.84v.837h9.718l-.005-1.769h.188c.132.005.17.017.17.233v1.536h5.026v-.412c.406.217 1.036.412 1.866.412h2.114l.453-1.078h1.003l.443 1.078h4.074V5.997l.617 1.024h3.265V.255h-3.231v.799l-.453-.8H32.72v.8l-.416-.8h-4.479c-.75 0-1.408.105-1.94.396V.255h-3.091V.65c-.34-.3-.8-.395-1.314-.395H10.187L9.43 2.002 8.652.255H5.095v.799l-.39-.8H1.67L.263 3.473V7.02z"/>
    </g>
</symbol><symbol id="ico-mono-ApplePay" viewBox="0 0 512 210.2">
    <path d="M93.6 27.1C87.6 34.2 78 39.8 68.4 39c-1.2-9.6 3.5-19.8 9-26.1 6-7.3 16.5-12.5 25-12.9 1 10-2.9 19.8-8.8 27.1m8.7 13.8c-13.9-.8-25.8 7.9-32.4 7.9-6.7 0-16.8-7.5-27.8-7.3-14.3.2-27.6 8.3-34.9 21.2-15 25.8-3.9 64 10.6 85 7.1 10.4 15.6 21.8 26.8 21.4 10.6-.4 14.8-6.9 27.6-6.9 12.9 0 16.6 6.9 27.8 6.7 11.6-.2 18.9-10.4 26-20.8 8.1-11.8 11.4-23.3 11.6-23.9-.2-.2-22.4-8.7-22.6-34.3-.2-21.4 17.5-31.6 18.3-32.2-10-14.8-25.6-16.4-31-16.8m80.3-29v155.9h24.2v-53.3h33.5c30.6 0 52.1-21 52.1-51.4s-21.1-51.2-51.3-51.2h-58.5zm24.2 20.4h27.9c21 0 33 11.2 33 30.9s-12 31-33.1 31h-27.8V32.3zM336.6 169c15.2 0 29.3-7.7 35.7-19.9h.5v18.7h22.4V90.2c0-22.5-18-37-45.7-37-25.7 0-44.7 14.7-45.4 34.9h21.8c1.8-9.6 10.7-15.9 22.9-15.9 14.8 0 23.1 6.9 23.1 19.6v8.6l-30.2 1.8c-28.1 1.7-43.3 13.2-43.3 33.2 0 20.2 15.7 33.6 38.2 33.6zm6.5-18.5c-12.9 0-21.1-6.2-21.1-15.7 0-9.8 7.9-15.5 23-16.4l26.9-1.7v8.8c0 14.6-12.4 25-28.8 25zm82 59.7c23.6 0 34.7-9 44.4-36.3L512 54.7h-24.6l-28.5 92.1h-.5l-28.5-92.1h-25.3l41 113.5-2.2 6.9c-3.7 11.7-9.7 16.2-20.4 16.2-1.9 0-5.6-.2-7.1-.4v18.7c1.4.4 7.4.6 9.2.6z"/>
</symbol><symbol id="ico-mono-arrow-back" viewBox="0 0 23 17">
    <path d="M8.558.881h-.212L.88 8.354v.212l7.465 7.473h.212l.185-.185v-.212L1.842 8.741H21.87l.15-.15V8.33l-.15-.15-20.028-.001 6.901-6.9v-.212z" fill-rule="nonzero"/>
</symbol><symbol id="ico-mono-arrow-back2" viewBox="0 0 48 48">
    <path d="M26 6.586L8.586 24 26 41.414 27.414 40l-15-15H39v-2H12.414l15-15z"/>
</symbol><symbol id="ico-mono-arrow-bottom" viewBox="0 0 11 6">
    <path d="M9.52 5.43a.5.5 0 00.7-.72L5.49.14a.5.5 0 00-.7 0L.16 4.71a.5.5 0 00.7.71l4.3-4.22 4.37 4.23z"/>
</symbol><symbol id="ico-mono-arrow-right" viewBox="0 0 8 13">
    <path d="M.987.132H.774L.62.287v.21L6.544 6.5.621 12.502v.211l.153.155h.213l6.175-6.263v-.21z" fill-rule="nonzero"/>
</symbol><symbol id="ico-mono-atd-logo-abbrev" viewBox="0 0 269.35 149.8">
    <path d="M220.19 106.68c.88-1.7 1.89-3.8 3-6.27l10 .34h.64c15.47 1.34 27.41 2.6 35.56 3.75v-.83a34.67 34.67 0 00-13.55-4.73c-.56-.09-5.74-.59-15.39-1.47-2.07-.2-4.22-.38-6.41-.55-2.9-.23-5.91-.44-9-.63l.93-2.16q2.65-6.28 5.93-14.67c8.42-21.31 13.14-40.78 14-57.89.48-8.24-.68-14.18-3.45-17.67-3.48-2.6-7-3.92-10.4-3.92a12 12 0 00-5.73 1.48C206.46 18.32 194.24 47.55 190 88.34v.12c-.24 1-.46 2.69-.66 4.45l-.23 2.36h-4.99c-.52 0-3.33-.29-3.86-.28l-59.07-2.73-1.5-1.17.13-.6c.41-2 .58-3.09.69-3.81a8.35 8.35 0 011.33-3.64 153.55 153.55 0 007.08-26.5 4.9 4.9 0 00-4.2-2.29 2.85 2.85 0 00-2.52 1.55 132.92 132.92 0 01-5.86 16.64 158.31 158.31 0 00-6 16.52l-.06.18c-1.5 3.14-3.12 4.69-4.95 4.74l-40.5 1c-15.9.29-29.47-.28-40.35-1.69-2.49.44-5.64-.23-9.44-2-4.91-2.15-7.2-2.57-8.26-2.55-2.23.05-4.24 1.13-6.16 3.28a1.94 1.94 0 00-.64 1.44c0 .49.33 1.59 2.48 3.52 13.91 2.69 30.91 3.81 50.52 3.32 5.74-.14 14.36-.45 25.63-.93 7.25-.31 13.55-.53 18.72-.66q3.87-.09 7-.12h.4l1.81 1.76v.45c-.1 1.54-.61 5.31-1.51 11.22-.23 1.72-.41 3.32-.55 4.81 0 .53-.24 2-.19 4.93-.05.73-.09 1.43-.11 2.09a25 25 0 01-1.77 5.64 34.67 34.67 0 01-2.34 4c-4.83 6.25-7.67 8-10.07 8.56s-6.21 1.2-8.66.69l-.16-.05c-4.8-1.85-7.24-5.34-7.24-11.27v-8.85c0-1.06 0-2.07-.12-3l-2.26-3.89a28.92 28.92 0 00-11.82-2.33 43.25 43.25 0 00-15.3 2.93 25.34 25.34 0 00-12.78 10.25 22.3 22.3 0 00-3.42 11.77c0 3.06.55 5 1.6 5.58a24.74 24.74 0 0012.55 3.17c5.35 0 11.59-1.34 18.54-4l.47-.18.43.28c5.51 3.58 12.6 4.92 21.06 4.92h4c3.67-.46 6.89-2.55 9.46-3.76 2.91-2.17 4.87-5.33 6.49-7.07.91-1 1.65-3.52 2.27-4.51.22-.36.42-.71.61-1.06a13.47 13.47 0 001.39 2.11l.1.13v.16c.18.56.4 1.1.63 1.63l2.53 4c3.86 4.64 13 9.34 19.79 9.94a31.65 31.65 0 0020.69-5.66 21.49 21.49 0 002.73-2.27 10 10 0 00.87 1c2 2 5.19 3 9.49 3 4.48 0 12.26-1.55 23.13-4.61l.4-.11.36.2c5.06 2.82 11.45 4.7 19 5.58 4.53.59 11.53 1 20.84 1.19a117.58 117.58 0 0026.5-6.75v-3.05c-10.55 4.34-20.5 6.55-29.6 6.55a35.5 35.5 0 01-12-1.86 19.26 19.26 0 01-7.3-5.21c-2-2.22-3-3.89-3.11-5.24v-.46l.33-.33a102.76 102.76 0 0017.7-24.83zm-156 15.82c0 1.85-1.11 3.52-3.3 5s-2.61 2.31-2.72 2.87v.16c-.8 2.2-1.6 4.36-2.4 6.46l-.05.11a11 11 0 01-5.44 5.26l-.23.07a11.81 11.81 0 01-2 .16c-4.71 0-6.47-2.59-7.11-4.77a10.77 10.77 0 01-.49-3.13c0-1.06.38-3.31 3.69-10.61l.07-.15.11-.12a22.66 22.66 0 019-6.26l.16-.05h.17c5.72 0 9.26 1.57 10.53 4.67l.07.18v.19zm144.24-78.62c5.82-19.08 12.88-32.55 21-40l.16-.15.21-.07c.83-.28 2.15-.14 4.32.43l.22.06.17.15a8.12 8.12 0 011.8 2.25 11 11 0 011.17 3.6c.35 2.31.68 4.56 1 6.77v.16c-.54 23.61-6.82 49.41-18.65 76.79l-1 2.2c-5.83-.26-13.1-.55-17.77-.67l-1.93-.05.16-2.21a231.64 231.64 0 019.14-49.26zm-32.59 97.75l-.19.09a8.62 8.62 0 01-2.69.47 6.31 6.31 0 01-4.91-2.33 6 6 0 01-2.42-5.09c0-3.55 2.14-6.13 6.35-7.69l.29-.06a6.11 6.11 0 015.52 2.82l.05.09c.9 1.61 1.85 3.21 2.83 4.76l.09.14v.16c.56 2.17-1.06 4.34-4.92 6.61zm14.79-14.41a12.87 12.87 0 00-1.66.14l-.37.05-.32-.21a22.93 22.93 0 00-12.65-4.18c-4.78 0-11 2.21-18.48 6.57-3.4 2.77-5.12 5.47-5.12 8a5.68 5.68 0 000 .59l.08.22a35.2 35.2 0 01-2.89 2.07 36.33 36.33 0 01-5.61 2.92 21.8 21.8 0 01-8.31 1.77c-5.23.13-9.58-1.26-13-4.13-5.3-4.44-8-11.49-8-21 0-3.34.66-9.61 2-18.64v-.17c.73-2.22 1.87-3.63 3.41-3.61 10.88.1 21.95 1.26 37.72 1.41 5.36.05 17.81.6 25.64.56h5.54v1.05c0 .75.15 2.55.29 4.3.16 1.95.31 3.8.31 4.7a73.64 73.64 0 002.37 16.27l.29 1.23zm11.19-5.05c-2.14 0-3.12-2.92-3.44-3.88v-.31q0-9.3.5-18.25c4.44.12 11.85.33 18.1.52-.41.9-.81 1.8-1.24 2.7v.1c-6.4 10.36-10.56 16.5-12.73 18.76l-.19.2-.27.07a2.28 2.28 0 01-.73.06z"/>
</symbol><symbol id="ico-mono-atd-logo-full" viewBox="0 0 906.82 165.54">
    <path d="M197.35 20.22c.38-7.93-1-13.55-4-16.72A19.54 19.54 0 00181.8 0a14.86 14.86 0 00-6.49 1.77c-21.66 17.15-34.81 45.79-39.07 85.15a14.77 14.77 0 01-.18 1.47c-.19 1.3-.48 3.27-.63 5.69-.1 1.62.09 6.71.21 9.76.05 1.28.09 2.28.09 2.68.09 7.26 2.15 17 6.13 29a61.67 61.67 0 01-6.54 8.58 62.87 62.87 0 01-6.13 6.07 37.28 37.28 0 01-10.39 5.77 27.84 27.84 0 01-8.19 1.27 15.28 15.28 0 01-5.57-.68c-6.31-3.37-11-6.76-14.2-11.26a26.39 26.39 0 01-4.1-9.28v-.07q1.91-2.57 3.84-5.42 1.43-2.1 2.84-4.34c.52-.82 1-1.64 1.55-2.49 9.91-13.43 16.84-28.89 23.59-44.6 9-20.77 14-39.69 14.85-56.24.38-7.93-1-13.55-4-16.72a19.54 19.54 0 00-11.5-3.49 14.86 14.86 0 00-6.49 1.77C89.69 21.53 76.54 50.17 72.28 89.53A14.77 14.77 0 0172.1 91c-.19 1.3-.48 3.27-.63 5.69-.1 1.62.09 6.71.21 9.76 0 1.28.09 2.28.09 2.68.09 7.33 2.19 17.17 6.24 29.31v.05c0 .08 0 .16.08.24-.52.71-1.14 1.52-1.39 1.89a11.09 11.09 0 01-1.11 1.24c-1.93 2-4.72 4.47-6.3 5.91a56.28 56.28 0 01-6.86 5.47 17 17 0 01-7.87 2.81h-2.12c-4.82-1.66-6.78-4.46-6.85-10.39l-.11-8.85c0-1.06-.07-2.07-.16-3L43 130.06a28.59 28.59 0 00-11.84-1.85 43.67 43.67 0 00-15.26 3.56 26.41 26.41 0 00-12.62 10.77A22.84 22.84 0 000 154.45c0 3.06.61 5 1.66 5.52a24.31 24.31 0 0012.59 2.66c5.35-.22 11.57-1.81 18.49-4.74l.47-.2.43.26c5.55 3.35 15.91 4.05 19.48 3.5a38.43 38.43 0 007.77-2 35.56 35.56 0 008.47-4.62 76.84 76.84 0 008.57-8.1c.73-.79 1.48-1.63 2.24-2.52a36 36 0 007.32 9.25l4.15 3.27c2.13 1.41 3.22 2.51 5.45 3.17l.26.12a48.37 48.37 0 007.78 2.22 46.48 46.48 0 0010.11-.5 27.34 27.34 0 007.13-2.15 39.82 39.82 0 007.55-4.77 109.05 109.05 0 0013.81-14 36 36 0 007.82 10.14 27.58 27.58 0 0010.61 6.32l.26.12a48.37 48.37 0 007.78 2.22 37.64 37.64 0 008.21.54 60.59 60.59 0 0013.28-2.32c.53-.15 1-.48 1-1.77 0-.36-.07-1.57-.51-1.55h-.16a67.73 67.73 0 01-10.97 1.48c-5 .2-9-.48-12.06-2-10.51-5.61-16-10.26-18.11-21l-.09-.49S174 96.23 182.5 76.46c8.96-20.77 13.95-39.69 14.85-56.24zm-161.56 117c0 1.83-1.08 3.55-3.25 5.08s-2.59 2.42-2.68 3v.17c-.78 2.24-1.55 4.42-2.33 6.56v.11a11.46 11.46 0 01-5.38 5.48l-.23.08a11.67 11.67 0 01-2 .24c-4.71.19-6.49-2.33-7.16-4.48a10.69 10.69 0 01-.53-3.11c0-1.06.34-3.32 3.56-10.76l.07-.15.11-.12a23.78 23.78 0 018.88-6.63l.16-.06h.17c5.72-.23 9.28 1.19 10.58 4.24l.08.18zm48-7.07a77.43 77.43 0 01-1.79-9.49v-.25c-.43-28 2.73-54.84 10-74.57 5-17.35 12.67-30.61 22.92-39.32l.23-.15c.94-.44 2.39-.42 4.7.06h.2l.16.11a8.56 8.56 0 013.46 5.58c.43 2.19.81 4.36 1.14 6.44v.16c-.3 25.27-8.42 53.47-24.11 83.82l-.07.11c-4.8 7.8-6.62 13.25-11.07 19a97.12 97.12 0 01-5.75 8.54zm80.81-30.11c-1.61 2.94-3.13 5.66-4.54 8.13a68.33 68.33 0 01-6.53 10.88c-.49.63-2.35 4-4.68 7.09-.35.47-.71.94-1.09 1.4-.13-.49-.24-1-.35-1.45a73.62 73.62 0 01-1.42-8.07v-.25c-.05-3.08 0-6.16 0-9.22-.41-24.62 3.56-47.86 10-65.36C161 25.88 168.65 12.62 178.9 3.91l.23-.15c.94-.44 2.39-.42 4.7.06h.2l.16.11a8.56 8.56 0 013.46 5.58c.43 2.19.81 4.36 1.14 6.44v.16c-.3 25.27-8.42 53.47-24.11 83.82zm-18.6 8.54z"/>
    <path d="M663.06 152.79a14.65 14.65 0 00-1.52.14 16.56 16.56 0 01-1.93.16 4.89 4.89 0 01-3.51-1.09c-2.42-1.9-3.64-4.87-3.64-8.86 0-1.05.25-3.54.75-7.42 0-.64.08-1.61.23-3a28.36 28.36 0 00.22-3c0-1.84-.58-3.08-1.76-3.79a5.27 5.27 0 00-2.79-.76 10.78 10.78 0 00-5.62 1.8l-.26.11a11.5 11.5 0 01-3 .49c-1.81 0-4-1.08-4.15-6.22-.11-4.49-1-6-1.63-6.57a8.68 8.68 0 00-1-.06 2.42 2.42 0 00-1.25.23c-.45.31-1.45 1.43-2.92 5.23-.51 1-1.36 3.22-2.54 6.57a6.32 6.32 0 00-.39 2.22 9.69 9.69 0 001.1 3.92c.44.88.78 1.57 1 2.12-7 6.29-23.43 13.11-33.74 12.89a38.16 38.16 0 01-12-1.86 19.26 19.26 0 01-7.29-5.21c-2-2.22-3-3.89-3.11-5.24v-.46l.33-.33a101.77 101.77 0 0017.82-25c2.77-5.34 6.69-14.5 11.66-27.21 8.42-21.31 13.14-40.78 14-57.89.48-8.23-.68-14.18-3.45-17.67a17.41 17.41 0 00-10.4-3.92 12 12 0 00-5.73 1.48c-19.84 16.84-32.06 46-36.31 86.76a52 52 0 01-.28 6.34 129.73 129.73 0 00-.48 15.06 95.45 95.45 0 002.37 16.33l.29 1.23h-1.27a12.87 12.87 0 00-1.66.14l-.37.05-.32-.21a23 23 0 00-12.65-4.18c-4.78 0-11 2.21-18.48 6.57-3.4 2.77-5.12 5.47-5.12 8a7.15 7.15 0 002.41 5.14c2 2 5.19 3 9.49 3 4.48 0 12.26-1.55 23.13-4.61l.4-.11.36.2c5.06 2.82 11.45 4.7 19 5.58a160.18 160.18 0 0020.84 1.19c7.86-.52 21.53-6.24 32.55-13.73h.2a51.05 51.05 0 0011.45-1.92l.19-.05h.19a3.6 3.6 0 013.41 3.09v.3a81 81 0 00-1 10.21c0 4.79 1.4 8.42 4.15 10.81 4 1.33 7.4 1.44 10.19.33 3.4-3.29 4.19-4.49 4.35-4.91a5.7 5.7 0 00.46-1.89c-.03-.22-.03-.52-.97-.52zm-116.94-8l-.19.09a8.62 8.62 0 01-2.69.47 6.31 6.31 0 01-4.91-2.33 6 6 0 01-2.42-5.09c0-3.55 2.14-6.13 6.35-7.69l.29-.06a6.12 6.12 0 015.52 2.82l.06.09c.9 1.61 1.85 3.21 2.83 4.76l.09.14v.16c.55 2.19-1.05 4.36-4.93 6.63zm22.54-23.35v-.31c-.1-27 3.3-51.91 10.09-74.1 5.82-19.08 12.88-32.55 21-40l.16-.15.21-.07c.83-.28 2.15-.14 4.32.43l.22.06.17.15a9.21 9.21 0 013 5.86c.35 2.31.68 4.56 1 6.77v.16c-.6 26.21-8.25 55.12-22.75 85.9l-.05.1c-6.4 10.36-10.56 16.5-12.73 18.76l-.19.2-.27.07c-.21.06-.42 0-.62.08-3.48.92-3.22-2.96-3.56-3.92z"/>
    <path d="M802.55 139.2c-3.7-3.31-10.51-6.78-14.31-10.27-3.24-2.08-7.89-4.77-7.89-8a25.33 25.33 0 011.47-6.9c.91-2.89 2.38-5.11 2.38-6.6 0-1.82 1.51-3.46.51-5-2-2.91-1.34-4.34-4.11-4.34a8.09 8.09 0 00-2.27.32l-10.48 12.52a31.14 31.14 0 00-1.69 8.66 10.9 10.9 0 001 4.68c.2.35 1 1.3 4 3 2.38 1.25 3.67 2.83 3.79 4.7v.28l-.13.25a52.11 52.11 0 01-6.13 8.13c-.84 1-1.81 2-2.74 3A21.27 21.27 0 01763 146a22.47 22.47 0 00-4.84-6.8c-3.69-3.3-10.51-6.76-14.3-10.26-3.24-2.08-7.89-4.77-7.89-8a25.33 25.33 0 011.47-6.9c.91-2.89 2.38-5.11 2.38-6.6 0-1.82 1.51-3.46.51-5-2-2.91-1.34-4.34-4.11-4.34a8.09 8.09 0 00-2.27.32l-10.48 12.52a31.14 31.14 0 00-1.69 8.66 10.9 10.9 0 001 4.68c.2.35 1 1.3 3.95 3 2.38 1.25 3.67 2.83 3.79 4.7v.28l-.13.25a52.11 52.11 0 01-6.13 8.13c-.84 1-1.81 2-2.74 3-1.17 1.25-3.21 2.47-4 3.22-2.59 2-8.05 2.5-8.05 2.5a20.65 20.65 0 01-6.74-1.06c-5.94-1.38-9.59-3.56-11.14-6.67l-.31-.63.49-.51c6.38-6.67 9.62-12.4 9.62-17a10.72 10.72 0 00-3.91-8.46 11 11 0 00-4.84-1.19 18.25 18.25 0 00-5.47 1c-2 .66-8.85 5.54-10.25 7.32a20.76 20.76 0 00-3.29 5.63 15 15 0 00-.85 4.85c0 4.25 2.39 8.17 7.09 11.65 4.07 3 7.78 5.75 13.52 7.12 0 0 4.33 2.17 16.58 1.67 6.16-.25 15.08-8.18 15.08-8.18 1.25-1 2.69-2.19 4.34-3.57l4.27-2.88 5.4-2.77 15.46 11.42a4.84 4.84 0 011.34 3.56 10.69 10.69 0 01-1.23 4.8c-.88 1.76-1.69 2.75-2.53 3.1a5.39 5.39 0 01-2 .45c-1.48 0-3.69-.77-6.76-2.36-3.42-1.77-5.14-2.14-6-2.14a4.6 4.6 0 00-1.11.12 24.85 24.85 0 00-2.44 1 1.83 1.83 0 00-1 1.52v.15c-.79 2.25.13 3.16 1.06 3.68a65.8 65.8 0 017.52 2.72 25.26 25.26 0 007.47 1.88h.35a14.16 14.16 0 008.74-3.25 21.26 21.26 0 006-7.93 12.9 12.9 0 00.4-3.12 11.93 11.93 0 00-.23-2.21 121.14 121.14 0 009.82-7.71l4.27-2.88 5.4-2.77 15.46 11.42a4.84 4.84 0 011.34 3.56 10.69 10.69 0 01-1.23 4.8c-.88 1.76-1.69 2.75-2.53 3.1a5.39 5.39 0 01-2 .45c-1.48 0-3.69-.77-6.76-2.36-3.42-1.77-5.14-2.14-6-2.14a4.6 4.6 0 00-1.11.12 24.85 24.85 0 00-2.44 1 1.83 1.83 0 00-1 1.52v.15c-.79 2.25.13 3.16 1.06 3.68a65.8 65.8 0 017.52 2.72 25.26 25.26 0 007.47 1.88h.35a14.16 14.16 0 008.74-3.25 21.26 21.26 0 006-7.93 12.9 12.9 0 00.4-3.12c-.3-4.08-2.32-8.13-6.31-12.11zm-113.56-5c-1.24 1-2 1.44-2.63 1.44a1.25 1.25 0 01-.43-.07l-.29-.1-.19-.24c-1.47-1.92-1.93-6-1.4-12.39v-.2l.09-.18c1.73-3.34 3.29-4.89 4.94-4.89 1.1 0 3 .44 3.53 3.38v.05a20.55 20.55 0 01-3.46 12.92z"/>
    <path d="M900.8 139.19c-3.69-3.3-10.51-6.76-14.3-10.26-3.24-2.08-7.89-4.77-7.89-8a25.33 25.33 0 011.47-6.9c.91-2.89 2.38-5.11 2.38-6.6 0-1.82 1.51-3.46.51-5-2-2.91-1.34-4.34-4.11-4.34a8.09 8.09 0 00-2.27.32l-10.48 12.52a31.14 31.14 0 00-1.69 8.66 10.9 10.9 0 001 4.68c.2.35 1 1.3 4 3 2.38 1.25 3.67 2.83 3.79 4.7v.28l-.13.25a52.11 52.11 0 01-6.13 8.13c-.84 1-1.81 2-2.74 3-1.17 1.25-3.21 2.47-4 3.22-2.59 2-8 2.5-8 2.5a20.65 20.65 0 01-6.74-1.06c-5.94-1.38-9.59-3.56-11.14-6.67l-.31-.63.49-.51c6.38-6.67 9.62-12.4 9.62-17a10.72 10.72 0 00-4.03-8.48 11 11 0 00-4.84-1.19 18.25 18.25 0 00-5.47 1c-2 .66-8.85 5.54-10.25 7.32a20.76 20.76 0 00-3.29 5.63 15 15 0 00-.85 4.85c0 4.25 2.39 8.17 7.09 11.65 4.07 3 7.78 5.75 13.52 7.12 0 0 4.33 2.17 16.58 1.67 6.16-.25 15.08-8.18 15.08-8.18 1.25-1 2.69-2.19 4.34-3.57l4.27-2.88 5.4-2.77 15.46 11.42a4.84 4.84 0 011.34 3.56 10.69 10.69 0 01-1.23 4.8c-.88 1.76-1.69 2.75-2.53 3.1a5.39 5.39 0 01-2 .45c-1.48 0-3.69-.77-6.76-2.36-3.42-1.77-5.14-2.14-6-2.14a4.6 4.6 0 00-1.11.12 24.85 24.85 0 00-2.44 1 1.83 1.83 0 00-1 1.52v.15c-.79 2.25.13 3.16 1.06 3.68a65.8 65.8 0 017.52 2.72 25.26 25.26 0 007.47 1.88h.35a14.16 14.16 0 008.74-3.25 21.26 21.26 0 006-7.93 12.9 12.9 0 00.4-3.12c-.15-4.03-2.17-8.08-6.15-12.06zm-69.14-5c-1.24 1-2 1.44-2.63 1.44a1.25 1.25 0 01-.43-.07l-.29-.1-.19-.24c-1.47-1.92-1.93-6-1.4-12.39v-.2l.09-.18c1.73-3.34 3.29-4.89 4.94-4.89 1.1 0 3 .44 3.53 3.38v.06a20.55 20.55 0 01-3.46 12.92z"/>
    <path d="M477.55 146.14c-8.31 4.78-16.63 7.2-24.69 7.2a35.13 35.13 0 01-8.8-1.08c-5.94-1.38-9.59-3.56-11.14-6.67l-.31-.63.49-.51c6.39-6.67 9.62-12.4 9.62-17a10.74 10.74 0 00-3.91-8.46 11 11 0 00-4.84-1.19 18.25 18.25 0 00-5.47 1c-2 .66-8.86 5.56-10.25 7.32a20.5 20.5 0 00-3.29 5.63 15 15 0 00-.85 4.85 12.36 12.36 0 003.2 8 51.52 51.52 0 01-17.2 3.76c-1.43 0-2.87 0-4.27-.15h-.21c-3.08-.91-5-3.3-5.65-7.08-.88-4.5-1.73-6.24-2.25-6.91a12.51 12.51 0 00-2.32-.21c-4.65 0-9.29 2.9-13.76 8.62l-.11.14-.15.09a8.77 8.77 0 01-4.28 1.65 2.79 2.79 0 01-2.52-1.56l-.13-.23v-.26c0-17.07.46-17.87.73-18.35l.1-.18.17-.12a198.83 198.83 0 0020.4-17.11q16.08.44 36.78 1.17c15.47 1.34 27.41 2.6 35.56 3.75v-.83a34.67 34.67 0 00-13.55-4.73c-.56-.09-5.74-.59-15.39-1.47-11.3-1.07-24.39-1.8-39.1-2.19A118.12 118.12 0 00411.27 73c8.74-17.78 13.17-32.31 13.17-43.21 0-9.25-2.76-17.16-8.2-23.52a25.92 25.92 0 00-13.15-3.08 48.88 48.88 0 00-11.47 1.44c-10.88 6.45-19 16.8-24.19 30.76a76.23 76.23 0 01-4.09 8.95 19.29 19.29 0 00-2.44 9.12v.21l-.08.2a81.09 81.09 0 00-4.59 18.66c-.69 6.52-1.44 13.2-2.24 19.83.23 3.3.37 6.54.42 9.68H306.6l-1.37-1.04v-.44c-.21-3.27.48-5.89 2.07-7.78a151.24 151.24 0 007-26.25 5 5 0 00-4.2-2.39 2.76 2.76 0 00-2.52 1.48 130.22 130.22 0 01-5.86 16.5 154.55 154.55 0 00-6 16.38l-.06.17c-1.5 3.11-3.12 4.62-4.95 4.62h-40.5c-15.9-.1-29.47-1-40.35-2.69-2.5.38-5.6-.34-9.44-2.21-4.91-2.27-7.2-2.75-8.26-2.75-2.23 0-4.24 1-6.16 3.12a1.9 1.9 0 00-.64 1.42c0 .49.33 1.6 2.48 3.58 13.91 3 30.91 4.57 50.52 4.57 5.74 0 14.36-.1 25.63-.3 10.85-.2 19.49-.25 25.68-.15h.4l1.81 1.81v.45c-.1 1.53-.61 5.3-1.51 11.18a86.46 86.46 0 00-.89 10.95 30.83 30.83 0 00.27 4.21 40.57 40.57 0 012.85 7.1c2.44 7.61 13.24 15 22.85 16 10.45 1.11 21.22-4.84 24.06-7.77.13-.12 9.13-8.63 11.73-13.63a11.77 11.77 0 011.07 3.35c.2 1.82.4 3.63.59 5.48.88 2.17 2.86 3.39 6 3.75a12.21 12.21 0 004.55-.26h.17c1.56-.19 3.85-1.15 6.82-2.87a11.79 11.79 0 015.92-2 6.15 6.15 0 011.06.09h.2l.17.11a34.14 34.14 0 0018.66 5.39c7.14 0 14.53-2 22.14-5.05v-.12a25.32 25.32 0 002.59 2.21 40.46 40.46 0 0014.82 6.57 47.61 47.61 0 0010.84 1.17c6.48 0 15.41-1.3 26.55-3.86 1.76-.69 3.54-1.43 5.29-2.21a3.63 3.63 0 002.36-2.77c-.62-.78-2.17-.99-3.49-1.02zM352.68 124.2a56.16 56.16 0 01-3.13 10.23l-.11.23c-1.67 3.28-7.83 10.73-7.83 10.73a2.91 2.91 0 00-.35.31 34.21 34.21 0 01-12.19 8 21.51 21.51 0 01-8.31 1.57c-5.23 0-9.59-1.5-13-4.45-5.3-4.57-8-11.69-8-21.15 0-3.34.66-9.59 2-18.59v-.17c.74-2.2 1.88-3.39 3.41-3.53 13.49-.9 28.3-1.36 44-1.35h5.19a93.58 93.58 0 01-1.68 18.17zm12.24-41.42q1.65-11.86 3.3-23.56v-.16c4.54-14.73 7.88-24.08 10.23-28.6 3.88-11.47 10.6-19.52 20-23.91l.25-.08a27.09 27.09 0 014.7-.47c4 0 6.65 1.41 7.82 4.21 2.95 7.31 4.33 14.16 4.13 20.37a87 87 0 01-4.7 23.68c-.8 2.41-3.69 9.7-8.57 21.66l-.13.23-16.2 21.3c-1.29 1.65-2.57 3.22-3.84 4.74q-6.54-.12-13.46-.13h-5.24c.22-5.7.79-12.15 1.71-19.28zm-1.24 33.56a3 3 0 01-.43-2.85c-.09-2.12-.14-4.29-.14-6.45v-.87q6.81.1 15.08.31A110 110 0 01367 117.41l-.28.23h-.37a3.21 3.21 0 01-2.67-1.3zm66.71 21.78c-1.46 1.2-2.11 1.44-2.63 1.44a1.16 1.16 0 01-.42-.07l-.29-.1-.19-.24a3.21 3.21 0 01-.19-.31 6.09 6.09 0 01-.48-.92 11.76 11.76 0 01-.75-3.08 29.2 29.2 0 01-.19-3.7q0-2 .21-4.38v-.2l.09-.18c1.73-3.34 3.29-4.89 4.94-4.89a3.33 3.33 0 012.48 1 4.52 4.52 0 011.06 2.36v.15a19.34 19.34 0 010 2 20.51 20.51 0 01-3.49 10.91z"/>
</symbol><symbol id="ico-mono-bag" viewBox="0 0 40 39">
    <path d="M0 35c0 2.2 1.8 4 4 4h32c2.2 0 4-1.8 4-4V9h-9.191C29.865 3.888 25.382 0 20 0S10.135 3.888 9.191 9H0v26zM20 2c4.275 0 7.855 2.998 8.768 7H11.232c.913-4.002 4.493-7 8.768-7zM9 11v6h2v-6h18v6h2v-6h7v24c0 1.103-.897 2-2 2H4c-1.103 0-2-.897-2-2V11h7z" fill-rule="nonzero"/>
</symbol><symbol id="ico-mono-box" viewBox="0 0 70 68">
    
    <g fill-rule="evenodd">
        <g transform="translate(46.222 42.289)">
            <mask id="b">
                <use xlink:href="#a"/>
            </mask>
            <path d="M19.467 19.467c-2.045 2.044-4.711 3.11-7.556 3.11-2.844 0-5.511-1.066-7.555-3.11-2.045-2.045-3.112-4.711-3.112-7.556 0-2.844 1.067-5.511 3.112-7.555C6.4 2.31 9.066 1.244 11.91 1.244c2.845 0 5.511 1.067 7.556 3.112 2.044 2.044 3.11 4.71 3.11 7.555 0 2.845-1.155 5.511-3.11 7.556m.8-15.911C18.044 1.333 15.11.089 11.91.089S5.778 1.333 3.556 3.556C1.333 5.778.089 8.71.089 11.91c0 3.111 1.244 6.133 3.467 8.356 2.222 2.222 5.155 3.466 8.355 3.466s6.133-1.244 8.356-3.466c2.222-2.223 3.466-5.156 3.466-8.356 0-3.111-1.244-6.044-3.466-8.355" fill-rule="nonzero" mask="url(#b)"/>
        </g>
        <path d="M29.244 28.778L1.69 15l11.2-5.6 27.555 13.778-11.2 5.6zm-.533 37.333L1.067 52.156V15.978L28.71 29.756V66.11zM18.667 6.556l27.555 13.777-4.444 2.223c-.09 0-.178-.09-.267-.09L14.222 8.779l4.445-2.222zm10.666-5.334L56.89 15l-9.422 4.711L19.91 5.933l9.422-4.71zm17.334 33.245l-4.8 2.577V23.711l4.8-2.4v13.156zM43.2 59.356L29.867 66.11V29.756l10.844-5.423v13.69c0 .177.089.355.267.533.089.088.178.088.266.088.09 0 .178 0 .267-.088l5.956-3.2c.177-.09.266-.267.266-.534V20.778l9.778-4.89v22.134c0 .356.267.534.533.534.356 0 .534-.267.534-.534v-23.2s0-.089-.09-.089l-.088-.089-.089-.088L29.6.066a.567.567 0 00-.533 0l-16.178 8.09a.489.489 0 00-.445.266L.267 14.467s-.09 0-.09.089l-.088.088s0 .09-.089.09V52.51c0 .178.089.445.356.533l28.71 14.578h.356l14.222-7.2c.267-.178.356-.533.267-.8-.089-.266-.355-.355-.711-.266z" fill-rule="nonzero"/>
        <path d="M63.706 54.216h-9.423l3.05-2.748a.807.807 0 000-.89c-.266-.266-.622-.266-.8 0l-4.51 4.153 4.355 4.267a.679.679 0 00.444.178c.178 0 .267-.09.445-.178.266-.267.266-.622 0-.8l-2.933-2.86h9.372a.562.562 0 000-1.122" fill-rule="nonzero"/>
    </g>
</symbol><symbol id="ico-mono-calendar" viewBox="0 0 70 68">
    
    <g fill-rule="evenodd">
        <g transform="translate(11.041 .08)">
            <mask id="b">
                <use xlink:href="#a"/>
            </mask>
            <path d="M46.661 9.466a2.775 2.775 0 01-2.771 2.772h-1.11a2.775 2.775 0 01-2.771-2.772V3.918a2.775 2.775 0 012.771-2.771h1.11a2.775 2.775 0 012.771 2.771v5.548zm-27.742 0a2.775 2.775 0 01-2.771 2.772h-1.11a2.775 2.775 0 01-2.771-2.772V3.918a2.775 2.775 0 012.771-2.771h1.11a2.775 2.775 0 012.771 2.771v5.548zM54.335 5.58h-6.558V3.918A3.891 3.891 0 0043.89.031h-1.11a3.891 3.891 0 00-3.887 3.887v2.217H20.034V3.918A3.891 3.891 0 0016.148.031h-1.11a3.891 3.891 0 00-3.887 3.887V5.58h-6.56a4.56 4.56 0 00-4.536 4.552V39.13a.558.558 0 001.115 0V20.011h41.61a.558.558 0 000-1.115H1.17v-8.764a3.445 3.445 0 013.419-3.437h6.562v2.771a3.891 3.891 0 003.887 3.887h1.11a3.891 3.891 0 003.886-3.887V7.25h18.86v2.216a3.891 3.891 0 003.886 3.887h1.11a3.891 3.891 0 003.887-3.887V6.695h6.56a3.446 3.446 0 013.421 3.437v8.764h-7.21a.558.558 0 000 1.115h7.21v32.067a3.445 3.445 0 01-3.419 3.437H16.988a.558.558 0 000 1.116h37.347a4.56 4.56 0 004.538-4.553V10.132a4.56 4.56 0 00-4.538-4.552z" fill-rule="nonzero" mask="url(#b)"/>
        </g>
        <path d="M19.256 62.969C17.224 65 14.574 66.06 11.748 66.06 8.92 66.06 6.27 65 4.24 62.97c-2.032-2.032-3.092-4.682-3.092-7.508 0-2.827 1.06-5.477 3.092-7.508C6.27 45.92 8.92 44.86 11.748 44.86c2.826 0 5.476 1.06 7.508 3.092 2.031 2.031 3.091 4.681 3.091 7.508 0 2.826-1.148 5.476-3.091 7.508m-7.508-19.256c-3.18 0-6.095 1.237-8.303 3.445C1.237 49.366 0 52.28 0 55.46c0 3.091 1.237 6.094 3.445 8.303 2.208 2.208 5.123 3.444 8.303 3.444 3.18 0 6.094-1.236 8.302-3.444 2.209-2.209 3.445-5.123 3.445-8.303 0-3.092-1.236-6.007-3.445-8.303-2.208-2.208-5.123-3.445-8.302-3.445" fill-rule="nonzero"/>
        <path d="M9.1 52.402h.055c.658.016 1.1.191 1.48.587.223.234.436.554.671 1.009a.51.51 0 00.442.276h.012a.513.513 0 00.443-.256c.662-1.153 1.212-1.52 2.22-1.497a2.247 2.247 0 011.57.67c.342.358.525.814.514 1.284-.035 1.58-1.465 2.7-3.276 4.118l-.01.007c-.518.407-1.053.826-1.599 1.288-.527-.49-1.045-.933-1.546-1.364-.672-.577-1.307-1.122-1.816-1.655-.911-.952-1.291-1.733-1.272-2.608.023-1.025.971-1.859 2.113-1.859m5.346-.901a4.51 4.51 0 00-.102-.001c-1.085 0-1.884.401-2.563 1.295a3.993 3.993 0 00-.409-.51c-.568-.595-1.266-.882-2.195-.903H9.1c-1.692 0-3.097 1.28-3.133 2.856-.033 1.482.813 2.562 1.555 3.337.544.57 1.197 1.13 1.895 1.73a43.843 43.843 0 011.836 1.639.508.508 0 00.69.015c.652-.571 1.296-1.075 1.918-1.562 1.943-1.522 3.62-2.836 3.667-4.9a2.808 2.808 0 00-.797-2.011 3.271 3.271 0 00-2.284-.985" fill-rule="nonzero"/>
        <path d="M53.202 27.786c.287 0 .52.233.52.52v4.014h4.922a.521.521 0 010 1.041h-4.921v13.084a.521.521 0 01-1.041 0V33.361H41.026v8.029h6.735a.521.521 0 010 1.04h-6.735v4.015a.521.521 0 01-1.042 0v-4.014H28.328v4.014a.521.521 0 01-1.04 0v-4.014h-4.922a.521.521 0 010-1.041h4.921V33.36h-4.92a.521.521 0 010-1.04h4.92v-4.015a.521.521 0 011.041 0v4.014h11.656v-4.014a.521.521 0 011.042 0v4.014h11.656v-4.014c0-.287.233-.52.52-.52zM39.984 33.36H28.328v8.029h11.656V33.36z" fill-rule="nonzero"/>
    </g>
</symbol><symbol id="ico-mono-caret" viewBox="0 0 10 5">
    <path d="M9.37.379L4.898 4.847.423.38.534.268l4.363 4.363L9.26.268z" fill-rule="nonzero" stroke-width=".3"/>
</symbol><symbol id="ico-mono-checkbox" viewBox="0 0 11 7">
    <path d="M10.428.647L9.85.079 4.053 5.785 1.149 2.922l-.576.568 3.48 3.431z" fill-rule="nonzero" stroke-width=".5"/>
</symbol><symbol id="ico-mono-checkbox2" viewBox="0 0 48 48">
    <path d="M0 0h48v48H0z"/>
    <path d="M18 32.465l-12-12L2.464 24 18 39.535 45.536 12 42 8.465z"/>
</symbol><symbol id="ico-mono-close" viewBox="0 0 36 36">
    <path d="M2 35.414l16-16 16 16L35.414 34l-16-16 16-16L34 .586l-16 16-16-16L.586 2l16 16-16 16z" fill-rule="nonzero"/>
</symbol><symbol id="ico-mono-dress" viewBox="0 0 70 77">
    
    <g fill-rule="evenodd">
        <path d="M48.151 7.254c0 2.308-.538 4.554-1.566 6.591H36.549a.513.513 0 000 1.025h9.467c-.132.217-.268.432-.412.643l-1.834 2.69a1.91 1.91 0 01-1.58.834H23.986a1.91 1.91 0 01-1.579-.835l-1.834-2.689a14.605 14.605 0 01-2.547-8.26V2.937c0-1.054.857-1.911 1.911-1.911h2.343c.9 0 1.668.616 1.865 1.498.928 4.146 4.69 7.155 8.944 7.155 4.254 0 8.016-3.01 8.944-7.155a1.902 1.902 0 011.865-1.498h2.343c1.054 0 1.911.857 1.911 1.91v4.319zM23.985 20.06h19.09l13.31 51.58c-1.177-.938-3.182-2.186-5.504-2.186-2.25 0-4.295 1.153-6.082 3.427-1.376 1.751-2.666 2.64-3.834 2.64-2.514 0-3.915-4.172-3.929-4.214a.513.513 0 00-.867-.184c-.04.044-4.033 4.397-8.187 4.398-1.858 0-3.498-.889-4.875-2.64-1.786-2.274-3.983-3.427-6.53-3.427-2.828 0-5.385 1.419-6.85 2.431l13.374-51.825h.884zm19.992-.606c.244-.188.461-.414.64-.676l1.833-2.689c.3-.439.573-.891.824-1.354a.508.508 0 00.164-.308 15.617 15.617 0 001.738-7.175V2.936A2.94 2.94 0 0046.24 0h-2.343A2.921 2.921 0 0041.032 2.3c-.824 3.682-4.165 6.354-7.944 6.354-3.78 0-7.12-2.672-7.944-6.354A2.921 2.921 0 0022.279 0h-2.343A2.94 2.94 0 0017 2.936v4.318c0 3.165.943 6.221 2.726 8.837l1.833 2.688c.179.262.396.489.64.676L8.365 73.07a.51.51 0 00.229.565.523.523 0 00.608-.055c.035-.031 3.521-3.1 7.376-3.1 2.216 0 4.142 1.02 5.725 3.034 1.572 2.002 3.473 3.022 5.65 3.032h.032c3.639 0 6.955-2.776 8.376-4.153.609 1.411 2.114 4.153 4.605 4.153 1.499 0 3.06-1.02 4.64-3.031 1.583-2.014 3.358-3.035 5.276-3.035 3.305 0 6.025 3.027 6.052 3.058.153.171.42.22.624.112a.51.51 0 00.256-.58L43.977 19.455z" fill-rule="nonzero"/>
        <path d="M15.592 65.02c.11.044 1.106.426 2.433.426 1.242 0 2.36-.33 3.322-.982 2.389-1.617 3.6-5.084 3.6-10.303 0-13.535 3.373-20.47 3.408-20.538a.513.513 0 00-.917-.458c-.035.07-3.515 7.211-3.515 20.996 0 4.854-1.058 8.034-3.145 9.451-.782.532-1.708.801-2.752.801a6.262 6.262 0 01-2.054-.344.51.51 0 00-.666.286.513.513 0 00.286.666" fill-rule="nonzero"/>
        <path d="M41.229 54.161c0 5.22 1.211 8.686 3.6 10.303.962.652 2.08.982 3.322.982 1.31 0 2.322-.381 2.434-.425a.514.514 0 00-.191-.988.514.514 0 00-.19.036c-.008.004-.89.347-2.052.347-1.04 0-1.964-.27-2.748-.8-2.09-1.415-3.15-4.596-3.15-9.455 0-13.806-3.48-20.926-3.516-20.996a.51.51 0 00-.687-.23.51.51 0 00-.23.688c.035.069 3.408 6.988 3.408 20.538" fill-rule="nonzero"/>
        <path d="M31.357 28.714a.509.509 0 00.363-.15l1.73-1.73a.509.509 0 000-.725.509.509 0 00-.724 0l-1.73 1.731a.509.509 0 00-.001.724c.097.097.225.15.362.15" fill-rule="nonzero"/>
        <path d="M7.129 39.804a2.952 2.952 0 01-2.95-2.949 2.952 2.952 0 012.95-2.949 2.952 2.952 0 012.949 2.95 2.952 2.952 0 01-2.95 2.948m3.974-2.949a3.978 3.978 0 00-3.973-3.973 3.978 3.978 0 00-3.974 3.973A3.978 3.978 0 007.13 40.83a3.978 3.978 0 003.973-3.974" fill-rule="nonzero"/>
        <path d="M62.508 11.408a2.952 2.952 0 012.95 2.95 2.952 2.952 0 01-2.95 2.948 2.952 2.952 0 01-2.949-2.949 2.952 2.952 0 012.95-2.949m3.973 2.95a3.978 3.978 0 00-3.974-3.974 3.978 3.978 0 00-3.973 3.973 3.978 3.978 0 003.973 3.974 3.978 3.978 0 003.974-3.974" fill-rule="nonzero"/>
        <path d="M4.98 16.767c-.378-1.283-.267-1.927.454-2.648a2.254 2.254 0 011.574-.674 1.8 1.8 0 011.287.517c1.122 1.122.942 2.935.715 5.236-.066.66-.133 1.34-.176 2.058-.715.044-1.391.11-2.048.175l-.016.002c-.884.087-1.719.17-2.456.17-1.322 0-2.151-.266-2.773-.887a1.806 1.806 0 01-.515-1.376 2.24 2.24 0 01.67-1.483c.467-.467.902-.667 1.452-.667.324 0 .704.068 1.196.213a.512.512 0 00.636-.636m1.894 5.685l.013-.002c.785-.077 1.596-.157 2.457-.194a.51.51 0 00.49-.49c.037-.867.118-1.683.196-2.472.244-2.464.454-4.592-1.01-6.057a2.817 2.817 0 00-2.011-.816c-.842 0-1.68.354-2.3.973-.816.817-1.095 1.674-.908 2.83a3.983 3.983 0 00-.653-.058c-.825 0-1.517.307-2.176.966a3.261 3.261 0 00-.97 2.164 2.817 2.817 0 00.815 2.144c1.052 1.052 2.422 1.186 3.497 1.186.79 0 1.65-.084 2.56-.174" fill-rule="nonzero"/>
        <g transform="translate(59.7 48.413)">
            <mask id="b">
                <use xlink:href="#a"/>
            </mask>
            <path d="M1.234 3.54l.001-.018c.065-.656.132-1.333.175-2.047.722-.043 1.402-.11 2.06-.175.885-.088 1.721-.17 2.46-.17 1.322 0 2.151.265 2.773.886.745.746.676 2.028-.155 2.859-.467.467-.901.667-1.452.667-.324 0-.704-.068-1.196-.213a.513.513 0 00-.636.636c.378 1.283.267 1.926-.454 2.648a2.254 2.254 0 01-1.575.674 1.8 1.8 0 01-1.286-.517c-1.122-1.122-.943-2.935-.715-5.23zm8.193-2.248C8.375.24 7.006.105 5.93.105c-.791 0-1.65.085-2.562.175C2.579.358 1.764.44.9.476a.51.51 0 00-.49.49 43.91 43.91 0 01-.196 2.473C-.03 5.903-.24 8.03 1.224 9.494c.527.527 1.24.817 2.011.817.843 0 1.68-.355 2.299-.974.817-.817 1.096-1.674.908-2.829.234.039.45.058.654.058.825 0 1.516-.307 2.176-.967a3.256 3.256 0 00.968-2.18c.031-.816-.258-1.572-.813-2.127z" fill-rule="nonzero" mask="url(#b)"/>
        </g>
    </g>
</symbol><symbol id="ico-mono-GooglePay" viewBox="0 0 435.97 173.13">
    <path d="M206.2 84.58v50.75h-16.1V10h42.7a38.61 38.61 0 0127.65 10.85A34.88 34.88 0 01272 47.3a34.72 34.72 0 01-11.55 26.6q-11.2 10.68-27.65 10.67h-26.6zm0-59.15v43.75h27a21.28 21.28 0 0015.93-6.48 21.36 21.36 0 000-30.63 21 21 0 00-15.93-6.65h-27z"/>
    <path d="M309.1 46.78q17.85 0 28.18 9.54t10.32 26.16v52.85h-15.4v-11.9h-.7q-10 14.7-26.6 14.7-14.17 0-23.71-8.4a26.82 26.82 0 01-9.54-21q0-13.31 10.06-21.17t26.86-7.88q14.34 0 23.62 5.25v-3.68A18.33 18.33 0 00325.54 67 22.8 22.8 0 00310 61.13q-13.49 0-21.35 11.38l-14.18-8.93q11.7-16.8 34.63-16.8zm-20.83 62.3a12.86 12.86 0 005.34 10.5 19.64 19.64 0 0012.51 4.2 25.67 25.67 0 0018.11-7.52q8-7.53 8-17.67-7.53-6-21-6-9.81 0-16.36 4.73c-4.41 3.2-6.6 7.09-6.6 11.76z"/>
    <path d="M436 49.58l-53.76 123.55h-16.62l19.95-43.23-35.35-80.32h17.5l25.55 61.6h.35l24.85-61.6z"/>
    <path d="M141.14 73.64A85.79 85.79 0 00139.9 59H72v27.73h38.89a33.33 33.33 0 01-14.38 21.88v18h23.21c13.59-12.53 21.42-31.06 21.42-52.97z"/>
    <path d="M72 144c19.43 0 35.79-6.38 47.72-17.38l-23.21-18C90.05 113 81.73 115.5 72 115.5c-18.78 0-34.72-12.66-40.42-29.72H7.67v18.55A72 72 0 0072 144z"/>
    <path d="M31.58 85.78a43.14 43.14 0 010-27.56V39.67H7.67a72 72 0 000 64.66z"/>
    <path d="M72 28.5a39.09 39.09 0 0127.62 10.8l20.55-20.55A69.18 69.18 0 0072 0 72 72 0 007.67 39.67l23.91 18.55C37.28 41.16 53.22 28.5 72 28.5z"/>
</symbol><symbol id="ico-mono-heart-fill" viewBox="0 0 40 35">
    <path d="M28.889 0C35.022 0 40 4.978 40 11.111c0 3.516-1.633 6.648-4.186 8.689l-.258.2L20 35 4.444 20A11.1 11.1 0 010 11.111C0 4.978 4.978 0 11.111 0 14.744 0 17.978 1.756 20 4.456A11.095 11.095 0 0128.889 0z" fill-rule="nonzero"/>
</symbol><symbol id="ico-mono-heart" viewBox="0 0 40 35">
    <path d="M4.444 20L20 35l15.556-15A11.1 11.1 0 0040 11.111C40 4.978 35.022 0 28.889 0A11.095 11.095 0 0020 4.456 11.095 11.095 0 0011.111 0C4.978 0 0 4.978 0 11.111A11.1 11.1 0 004.444 20zm6.667-18a9.152 9.152 0 017.288 3.654L20 7.792l1.601-2.137A9.15 9.15 0 0128.889 2C33.913 2 38 6.087 38 11.111c0 2.888-1.329 5.546-3.648 7.291l-.097.073-.088.085L20 32.222 5.833 18.56l-.088-.085-.097-.073C3.33 16.657 2 13.999 2 11.111 2 6.087 6.087 2 11.111 2z" fill-rule="nonzero"/>
</symbol><symbol id="ico-mono-location" viewBox="0 0 48 48">
    <path d="M24 44s14-12 14-26c0-7.732-6.268-14-14-14s-14 6.268-14 14c0 14 14 26 14 26zm0-28a2 2 0 11.001 3.999A2 2 0 0124 16z"/>
</symbol><symbol id="ico-mono-MasterCard" viewBox="0 0 42 27">
    <g fill-rule="evenodd">
        <path d="M25.501 13.35c0 7.025-5.694 12.719-12.718 12.719-7.025 0-12.719-5.694-12.719-12.718S5.758.632 12.783.632C19.807.632 25.5 6.327 25.5 13.351"/>
        <path d="M29.206.632a12.674 12.674 0 00-8.538 3.292c-.46.417-.888.867-1.284 1.347h2.57c.35.427.674.876.97 1.347h-4.51c-.27.432-.515.881-.732 1.347h5.974c.204.436.384.885.539 1.346h-7.052c-.147.439-.27.888-.37 1.347h7.79a12.811 12.811 0 01-.368 6.733h-7.052c.155.461.334.91.538 1.347h5.975a12.74 12.74 0 01-.734 1.347h-4.508c.294.47.618.92.97 1.346h2.57c-.396.48-.825.93-1.286 1.347a12.671 12.671 0 008.538 3.291c7.024 0 12.719-5.694 12.719-12.718S36.23.632 29.206.632"/>
        <path d="M9.813 14.743a2.375 2.375 0 00-.308-.021c-.783 0-1.179.268-1.179.799 0 .326.193.534.495.534.562 0 .968-.536.992-1.312zm1.004 2.338H9.673l.026-.544c-.349.43-.814.635-1.447.635-.748 0-1.261-.584-1.261-1.433 0-1.278.892-2.023 2.424-2.023.157 0 .357.015.563.04.042-.173.054-.246.054-.34 0-.347-.24-.477-.886-.477a4.604 4.604 0 00-1.461.236l.191-1.18c.688-.202 1.142-.278 1.652-.278 1.186 0 1.814.533 1.813 1.539.002.27-.042.602-.112 1.04-.12.759-.377 2.388-.412 2.785z"/>
        <path d="M6.413 17.081H5.032l.791-4.959-1.766 4.959h-.941L3 12.15l-.832 4.931H.876l1.08-6.451H3.94l.12 3.61 1.211-3.61h2.209L6.413 17.08"/>
        <path d="M31.564 14.743a2.364 2.364 0 00-.307-.021c-.783 0-1.179.268-1.179.799 0 .326.193.534.495.534.562 0 .968-.536.991-1.312zm1.005 2.338h-1.144l.026-.544c-.349.43-.814.635-1.447.635-.749 0-1.261-.584-1.261-1.433 0-1.278.892-2.023 2.424-2.023.157 0 .357.015.562.04.043-.173.054-.246.054-.34 0-.347-.24-.477-.885-.477a4.613 4.613 0 00-1.462.236l.192-1.18c.688-.202 1.142-.278 1.652-.278 1.187 0 1.814.533 1.813 1.539.002.27-.042.602-.112 1.04-.12.759-.377 2.388-.412 2.785z"/>
        <path d="M16.954 17.001c-.379.12-.673.17-.993.17-.705 0-1.09-.405-1.09-1.152-.01-.232.1-.842.189-1.398.08-.49.599-3.58.599-3.58h1.372l-.16.794h.829l-.188 1.26h-.831c-.16.998-.387 2.241-.39 2.406 0 .27.145.389.473.389.158 0 .28-.017.372-.05l-.182 1.161"/>
        <path d="M21.161 16.959a4.668 4.668 0 01-1.408.213c-1.536-.002-2.337-.804-2.337-2.34 0-1.794 1.019-3.115 2.402-3.115 1.131 0 1.854.74 1.854 1.899 0 .385-.05.76-.17 1.29H18.77c-.092.761.394 1.078 1.193 1.078.491 0 .934-.101 1.427-.33l-.229 1.305zm-.77-3.11c.007-.11.144-.937-.64-.937-.437 0-.75.333-.876.937h1.515z"/>
        <path d="M11.645 13.493c0 .663.322 1.121 1.052 1.465.558.263.645.34.645.579 0 .327-.246.475-.792.475a3.88 3.88 0 01-1.238-.208s-.18 1.157-.19 1.213c.314.067.594.13 1.437.155 1.457 0 2.13-.555 2.13-1.754 0-.72-.281-1.144-.973-1.462-.579-.266-.646-.325-.646-.57 0-.284.23-.429.676-.429.271 0 .641.03.992.08l.197-1.218a9.322 9.322 0 00-1.215-.102c-1.545 0-2.08.807-2.075 1.776"/>
        <path d="M27.877 11.856c.383 0 .741.1 1.234.348l.226-1.4c-.203-.08-.915-.546-1.518-.546-.924 0-1.706.459-2.254 1.215-.802-.265-1.132.27-1.535.806l-.36.083a2.68 2.68 0 00.045-.527h-1.269c-.173 1.624-.48 3.268-.72 4.893l-.063.353h1.382c.23-1.498.356-2.457.433-3.107l.52-.288c.078-.29.321-.387.809-.375a5.877 5.877 0 00-.098 1.075c0 1.717.927 2.786 2.413 2.786.383 0 .712-.05 1.22-.19l.243-1.47c-.458.226-.833.332-1.173.332-.803 0-1.288-.593-1.288-1.572 0-1.421.721-2.416 1.753-2.416"/>
        <path d="M39.567 10.63l-.307 1.864c-.377-.497-.783-.857-1.318-.857-.697 0-1.33.528-1.746 1.306a11.363 11.363 0 01-1.176-.324v.005c.046-.434.065-.699.06-.79h-1.268c-.172 1.625-.48 3.27-.72 4.894l-.063.353h1.382c.187-1.21.329-2.217.434-3.014.472-.427.709-.799 1.185-.774a4.497 4.497 0 00-.334 1.702c0 1.311.662 2.177 1.667 2.177.506 0 .894-.175 1.273-.58l-.065.489h1.306l1.052-6.451h-1.362zm-1.727 5.24c-.47 0-.708-.35-.708-1.035 0-1.032.445-1.763 1.071-1.763.475 0 .732.361.732 1.028 0 1.04-.452 1.77-1.095 1.77z"/>
        <path d="M14.753 11.52c.283 0 .768.04 1.088.09l-.176 1.064a7.025 7.025 0 00-.888-.07c-.4 0-.605.128-.605.377 0 .214.06.266.578.499.619.278.87.648.87 1.279 0 1.049-.601 1.534-1.906 1.534-.754-.021-1.005-.076-1.285-.136l.17-1.06c.395.125.738.181 1.107.181.489 0 .71-.129.71-.415 0-.209-.078-.277-.578-.507-.653-.301-.942-.7-.942-1.282-.004-.848.475-1.554 1.857-1.554zm-3.75 0c1.06 0 1.622.466 1.621 1.346.002.236-.037.528-.1.91-.107.664-.337 2.091-.369 2.437h-1.023l.023-.475c-.312.376-.729.555-1.295.555-.67 0-1.129-.512-1.129-1.254 0-1.118.799-1.77 2.17-1.77.14 0 .32.013.503.036.038-.152.049-.216.049-.299 0-.303-.216-.416-.793-.416a4.189 4.189 0 00-1.308.205l.171-1.032c.616-.176 1.022-.243 1.48-.243zm28.1-.951l-.94 5.644h-1.17l.058-.427c-.339.354-.686.507-1.139.507-.898 0-1.492-.757-1.492-1.905 0-1.527.921-2.814 2.01-2.814.48 0 .843.191 1.18.626l.275-1.631h1.218zm-18.893.951c1.014 0 1.66.647 1.66 1.662 0 .337-.045.665-.15 1.129h-2.447c-.083.666.353.944 1.067.944.44 0 .836-.09 1.278-.29l-.204 1.142c-.423.127-.83.186-1.261.186-1.376 0-2.092-.703-2.092-2.048 0-1.57.912-2.725 2.149-2.725zm-2.493-.592l-.144.695h.63l-.168 1.103h-.632c-.143.874-.346 1.96-.349 2.105 0 .237.13.34.424.34.14 0 .25-.014.333-.043l-.164 1.016a2.88 2.88 0 01-.888.15c-.631 0-.976-.356-.976-1.009-.009-.204.09-.737.17-1.224.07-.43.535-3.133.535-3.133h1.229zm12.752.592c1.06 0 1.623.466 1.622 1.346.002.236-.038.528-.1.91-.107.664-.337 2.091-.369 2.437h-1.024l.024-.475c-.313.376-.73.555-1.295.555-.67 0-1.129-.512-1.129-1.254 0-1.118.798-1.77 2.17-1.77.14 0 .319.013.502.036a1.11 1.11 0 00.049-.299c0-.303-.215-.416-.792-.416a4.191 4.191 0 00-1.308.205l.171-1.032c.616-.176 1.022-.243 1.479-.243zm-3.098-1.092c.54 0 1.177.223 1.358.293l-.202 1.225c-.441-.217-.761-.305-1.104-.305-.922 0-1.57.872-1.57 2.115 0 .857.435 1.375 1.154 1.375.304 0 .64-.092 1.05-.29l-.218 1.287c-.455.12-.75.165-1.092.165-1.33 0-2.159-.935-2.159-2.437 0-2.018 1.146-3.428 2.783-3.428zm-3.747 1.891c.378-.543.668-.83 1.185-.724-.153.254-.359.757-.47 1.332-.692-.069-.798.48-1.24 3.286h-1.237l.056-.308c.215-1.422.49-2.861.645-4.282h1.135c.01.233-.044.461-.074.696zM6.002 10.57l.05 3.494L7.25 10.57h1.92l-.956 5.644H6.978l.708-4.339-1.58 4.34h-.843l-.104-4.315-.744 4.314H3.26l.966-5.644h1.777zm27.794 1.75c.379-.543.668-.83 1.185-.724-.153.254-.358.757-.469 1.332-.693-.069-.8.48-1.242 3.286h-1.236l.057-.308c.215-1.422.49-2.861.644-4.282h1.135c.01.233-.044.461-.074.696zm-22.815 1.83c-.7 0-1.055.235-1.055.7 0 .285.173.467.443.467.503 0 .866-.468.888-1.147a2.1 2.1 0 00-.276-.02zm19.467 0c-.7 0-1.055.235-1.055.7 0 .285.173.467.443.467.503 0 .866-.468.887-1.147a2.085 2.085 0 00-.275-.02zm6.216-1.443c-.56 0-.958.64-.958 1.542 0 .601.213.905.633.905.576 0 .98-.638.98-1.547 0-.584-.23-.9-.655-.9zm-16.513-.14c-.39 0-.67.292-.785.819h1.357c.007-.096.13-.82-.572-.82z"/>
    </g>
</symbol><symbol id="ico-mono-menu" viewBox="0 0 48 48">
    <path d="M9.036 13H39v2H9.036z"/>
    <path d="M9.036 23H39v2H9.036z"/>
    <path d="M9.036 33H39v2H9.036z"/>
</symbol><symbol id="ico-mono-Paypal" viewBox="0 0 42 12">
    <g fill-rule="evenodd">
        <path d="M28.37 3.276c-.175 1.15-1.053 1.15-1.902 1.15h-.483l.339-2.146a.266.266 0 01.263-.225h.222c.578 0 1.124 0 1.406.329.168.197.219.489.155.892m-.37-3h-3.202c-.22 0-.405.16-.44.377l-1.295 8.212c-.025.162.1.309.264.309h1.643a.312.312 0 00.308-.263l.367-2.329a.445.445 0 01.44-.375h1.013c2.11 0 3.328-1.021 3.646-3.045.143-.884.005-1.58-.409-2.067C29.88.56 29.072.277 28.001.277"/>
        <path d="M5.527 3.276c-.175 1.15-1.053 1.15-1.903 1.15h-.483l.34-2.146a.266.266 0 01.263-.225h.222c.578 0 1.124 0 1.405.329.169.197.22.489.156.892m-.37-3H1.955c-.22 0-.406.16-.44.377L.22 8.865c-.026.162.1.309.263.309h1.53c.219 0 .405-.16.44-.376l.349-2.216a.445.445 0 01.44-.375h1.013c2.11 0 3.327-1.021 3.645-3.045.143-.884.006-1.58-.408-2.067C7.036.56 6.229.277 5.157.277"/>
        <path d="M12.593 6.225c-.148.876-.844 1.464-1.731 1.464-.445 0-.801-.143-1.03-.414-.227-.268-.312-.65-.24-1.077a1.716 1.716 0 011.718-1.476c.436 0 .79.145 1.023.418.235.276.327.66.26 1.085M14.73 3.24h-1.534a.267.267 0 00-.263.225l-.068.429-.107-.156c-.332-.481-1.072-.643-1.812-.643-1.694 0-3.141 1.284-3.423 3.085-.146.899.062 1.757.571 2.356.468.55 1.136.78 1.932.78 1.366 0 2.123-.877 2.123-.877l-.069.426c-.025.162.1.309.264.309h1.381c.22 0 .406-.16.44-.376l.829-5.25a.267.267 0 00-.264-.308"/>
        <path d="M35.436 6.225c-.148.876-.843 1.464-1.73 1.464-.445 0-.802-.143-1.03-.414-.228-.268-.313-.65-.24-1.077a1.716 1.716 0 011.718-1.476c.435 0 .789.145 1.022.418.235.276.328.66.26 1.085m2.138-2.985H36.04a.267.267 0 00-.264.225l-.067.429-.108-.156c-.332-.481-1.072-.643-1.811-.643-1.694 0-3.142 1.284-3.423 3.085-.147.899.061 1.757.57 2.356.469.55 1.136.78 1.932.78 1.366 0 2.123-.877 2.123-.877l-.068.426c-.026.162.1.309.264.309h1.38c.22 0 .406-.16.44-.376l.83-5.25a.267.267 0 00-.264-.308"/>
        <path d="M22.898 3.24h-1.541a.444.444 0 00-.368.195l-2.127 3.132-.9-3.01a.446.446 0 00-.427-.317H16.02a.267.267 0 00-.253.353l1.697 4.982-1.596 2.253a.267.267 0 00.218.421h1.54a.446.446 0 00.365-.191l5.127-7.4a.267.267 0 00-.22-.418"/>
        <path d="M39.381.503l-1.314 8.362c-.026.162.1.309.263.309h1.323c.218 0 .405-.16.439-.376L41.388.586a.267.267 0 00-.264-.309h-1.479a.266.266 0 00-.264.226"/>
    </g>
</symbol><symbol id="ico-mono-search" viewBox="0 0 38 38">
    <path d="M14 28c3.506 0 6.703-1.298 9.159-3.427L36 37.414 37.414 36 24.573 23.159A13.935 13.935 0 0028 14c0-7.732-6.268-14-14-14S0 6.268 0 14s6.268 14 14 14zm0-26c6.617 0 12 5.383 12 12s-5.383 12-12 12S2 20.617 2 14 7.383 2 14 2z" fill-rule="nonzero"/>
</symbol><symbol id="ico-mono-small-calendar" viewBox="0 0 10 10">
    <g fill-rule="nonzero">
        <path d="M9.167.938H7.813V.313a.312.312 0 10-.625 0v.625H5.313V.313a.312.312 0 10-.625 0v.625H2.813V.313a.312.312 0 10-.626 0v.625H.833A.833.833 0 000 1.77v7.396c0 .46.373.833.833.833h8.334c.46 0 .833-.373.833-.833V1.77a.833.833 0 00-.833-.833zm.208 8.229a.209.209 0 01-.208.208H.833a.209.209 0 01-.208-.208V1.77c0-.115.093-.208.208-.208h1.355v.625a.312.312 0 10.624 0v-.626h1.876v.625a.312.312 0 10.625 0v-.624h1.875v.625a.312.312 0 10.625 0v-.626h1.354c.115 0 .208.094.208.209v7.396z"/>
        <path d="M2.188 3.75h1.25v1h-1.25z"/>
        <path d="M2.188 5.313h1.25v1h-1.25z"/>
        <path d="M2.188 6.875h1.25v1h-1.25z"/>
        <path d="M4.375 6.875h1.25v1h-1.25z"/>
        <path d="M4.375 5.313h1.25v1h-1.25z"/>
        <path d="M4.375 3.75h1.25v1h-1.25z"/>
        <path d="M6.563 6.875h1.25v1h-1.25z"/>
        <path d="M6.563 5.313h1.25v1h-1.25z"/>
        <path d="M6.563 3.75h1.25v1h-1.25z"/>
    </g>
</symbol><symbol id="ico-mono-social-facebook" viewBox="0 0 13 25">
    <path d="M8.257 25V12.499h3.45l.458-4.309H8.257l.006-2.156c0-1.123.106-1.725 1.72-1.725h2.158V0H8.689C4.543 0 3.084 2.09 3.084 5.604v2.587H.5v4.308h2.584V25h5.173z" fill-rule="nonzero"/>
</symbol><symbol id="ico-mono-social-instagram" viewBox="0 0 25 25">
    <path d="M12.501 0c-3.395 0-3.82.015-5.154.076-1.33.06-2.24.271-3.034.58A6.12 6.12 0 002.1 2.098 6.136 6.136 0 00.656 4.312c-.31.795-.52 1.703-.58 3.034C.015 8.679 0 9.106 0 12.5c0 3.395.015 3.82.076 5.153.06 1.33.271 2.24.58 3.034.32.822.747 1.52 1.442 2.214a6.12 6.12 0 002.214 1.443c.795.31 1.703.52 3.034.58 1.333.061 1.759.076 5.154.076s3.82-.015 5.153-.075c1.33-.061 2.24-.272 3.035-.581a6.116 6.116 0 002.213-1.443 6.136 6.136 0 001.443-2.214c.307-.795.518-1.703.58-3.034.06-1.333.076-1.758.076-5.153 0-3.395-.016-3.82-.076-5.154-.062-1.33-.273-2.24-.58-3.034A6.135 6.135 0 0022.9 2.098 6.11 6.11 0 0020.687.656c-.796-.309-1.705-.52-3.036-.58C16.318.015 15.893 0 12.497 0h.004zM11.38 2.253H12.5c3.338 0 3.733.012 5.051.072 1.219.055 1.88.259 2.321.43.583.227 1 .497 1.437.935.437.437.708.854.935 1.437.171.44.375 1.102.43 2.32.06 1.318.073 1.714.073 5.05s-.013 3.732-.073 5.05c-.055 1.219-.259 1.88-.43 2.32a3.865 3.865 0 01-.935 1.436 3.866 3.866 0 01-1.437.935c-.44.172-1.102.375-2.32.43-1.318.06-1.714.074-5.052.074-3.338 0-3.733-.013-5.05-.073-1.22-.057-1.881-.26-2.322-.431-.583-.227-1-.498-1.438-.935a3.874 3.874 0 01-.935-1.437c-.171-.44-.375-1.101-.43-2.32-.06-1.318-.072-1.714-.072-5.052 0-3.338.012-3.732.072-5.05.055-1.218.259-1.88.43-2.32.227-.584.498-1 .935-1.438a3.88 3.88 0 011.438-.935c.44-.172 1.102-.375 2.321-.431 1.153-.052 1.6-.068 3.93-.07v.003zm7.794 2.075a1.5 1.5 0 100 3 1.5 1.5 0 000-3zM12.5 6.081a6.42 6.42 0 10.001 12.839 6.42 6.42 0 00-.001-12.84zm0 2.252a4.167 4.167 0 110 8.334 4.167 4.167 0 010-8.334z" fill-rule="nonzero"/>
</symbol><symbol id="ico-mono-social-pinterest" viewBox="0 0 20 25">
    <path d="M0 8.97c0 2.47.92 4.668 2.895 5.487.323.134.613.004.707-.36.065-.252.22-.888.288-1.153.095-.36.058-.486-.203-.8-.569-.682-.933-1.565-.933-2.816 0-3.629 2.672-6.878 6.959-6.878 3.795 0 5.88 2.357 5.88 5.503 0 4.14-1.804 7.636-4.48 7.636-1.48 0-2.586-1.243-2.23-2.766.424-1.82 1.246-3.783 1.246-5.096 0-1.176-.621-2.155-1.905-2.155-1.511 0-2.727 1.588-2.727 3.716 0 1.356.452 2.272.452 2.272L4.13 19.385c-.54 2.323-.08 5.17-.042 5.457.022.17.237.211.335.083.14-.186 1.94-2.444 2.553-4.7a484 484 0 00.993-3.947c.491.952 1.926 1.79 3.452 1.79 4.544 0 7.626-4.209 7.626-9.842C19.048 3.966 15.497 0 10.1 0 3.386 0 0 4.891 0 8.97z" fill-rule="nonzero"/>
</symbol><symbol id="ico-mono-star-rate-blank" viewBox="0 0 11.5 10">
    <path stroke-width=".2" fill-rule="nonzero" d="M4.984.65l1.35 2.89 3.021.464L7.17 6.252l.515 3.176-2.701-1.5-2.702 1.5.516-3.175-2.186-2.25 3.02-.463z"/>
</symbol><symbol id="ico-mono-star-rate-fill" viewBox="0 0 11.5 10">
    <path stroke-width=".2" fill-rule="nonzero" d="M4.984.65l1.35 2.89 3.021.464L7.17 6.252l.515 3.176-2.701-1.5-2.702 1.5.516-3.175-2.186-2.25 3.02-.463z"/>
</symbol><symbol id="ico-mono-user" viewBox="0 0 38 40">
    <path d="M24.089 20.747C27.6 18.909 30 15.238 30 11c0-6.075-4.925-11-11-11S8 4.925 8 11c0 4.238 2.4 7.909 5.911 9.747C5.89 23.09 0 30.809 0 40h38c0-9.191-5.89-16.91-13.911-19.253zM10 11c0-4.963 4.037-9 9-9s9 4.037 9 9-4.037 9-9 9-9-4.037-9-9zm9 11c8.735 0 15.953 7.013 16.896 16H2.104C3.047 29.013 10.265 22 19 22z" fill-rule="nonzero"/>
</symbol><symbol id="ico-mono-verified" viewBox="0 0 24 24">
    <path d="M16 9.14A2.26 2.26 0 0013.75 7H13V5c0-2.757-2.243-5-5-5S3 2.243 3 5v2h-.75C1.01 7 0 8.01 0 9.25v8.5C0 18.99 1.01 20 2.25 20h7.12c-.24-.79-.37-1.63-.37-2.5 0-4.18 3.02-7.66 7-8.36zM5 7V5c0-1.654 1.346-3 3-3s3 1.346 3 3v2z"/>
    <path d="M17.5 11c-3.584 0-6.5 2.916-6.5 6.5s2.916 6.5 6.5 6.5 6.5-2.916 6.5-6.5-2.916-6.5-6.5-6.5zm3.252 4.909l-3.5 4a.999.999 0 01-.719.341H16.5a1 1 0 01-.707-.293l-2-2a.999.999 0 111.414-1.414l1.244 1.244 2.796-3.196a1.001 1.001 0 011.505 1.318z"/>
</symbol><symbol id="ico-mono-Visa" viewBox="0 0 42 14">
    <g fill-rule="evenodd">
        <path d="M14.77 13.434L16.882.324h3.378l-2.113 13.11h-3.379"/>
        <path d="M30.4.647a8.35 8.35 0 00-3.027-.55c-3.34 0-5.69 1.779-5.71 4.326-.02 1.884 1.678 2.935 2.959 3.561 1.316.642 1.758 1.053 1.753 1.627-.01.878-1.05 1.28-2.022 1.28-1.352 0-2.07-.198-3.182-.687l-.434-.209-.473 2.935c.788.365 2.248.682 3.764.698 3.549 0 5.855-1.757 5.882-4.477.012-1.495-.888-2.627-2.837-3.562-1.18-.608-1.905-1.01-1.897-1.626.001-.545.612-1.128 1.935-1.128a5.925 5.925 0 012.528.504l.304.15L30.4.646"/>
        <path d="M34.898 8.786c.28-.753 1.345-3.664 1.345-3.664-.02.035.279-.76.45-1.25l.227 1.13s.649 3.129.782 3.784h-2.804zM39.065.338h-2.61c-.81 0-1.416.232-1.77 1.087l-5.017 12.014h3.548s.579-1.617.71-1.971l4.326.007c.102.457.412 1.964.412 1.964h3.135L39.065.339z"/>
        <path d="M11.936.336L8.63 9.273l-.355-1.817C7.66 5.363 5.741 3.094 3.596 1.958l3.025 11.465 3.575-.003L15.516.336h-3.58"/>
        <path d="M5.56.327H.113L.068.599c4.239 1.085 7.043 3.707 8.207 6.857L7.092 1.433C6.887.603 6.294.356 5.56.327"/>
    </g>
</symbol></svg>